G04 MADE WITH FRITZING*
G04 WWW.FRITZING.ORG*
G04 DOUBLE SIDED*
G04 HOLES PLATED*
G04 CONTOUR ON CENTER OF CONTOUR VECTOR*
%ASAXBY*%
%FSLAX23Y23*%
%MOIN*%
%OFA0B0*%
%SFA1.0B1.0*%
%ADD10C,0.071828*%
%ADD11C,0.075000*%
%ADD12C,0.057000*%
%ADD13C,0.080000*%
%ADD14C,0.078000*%
%ADD15R,0.080000X0.080000*%
%ADD16R,0.079986X0.080000*%
%ADD17C,0.032000*%
%ADD18C,0.024000*%
%LNCOPPER0*%
G90*
G70*
G54D10*
X2146Y1340D03*
X2046Y1340D03*
X1947Y1340D03*
X1846Y1340D03*
X1747Y1340D03*
X1647Y1340D03*
X1546Y1340D03*
X1447Y1340D03*
X1346Y1340D03*
X1247Y1340D03*
X1147Y1340D03*
X1046Y1340D03*
X947Y1340D03*
X847Y1340D03*
X747Y1340D03*
X647Y1340D03*
X548Y1340D03*
X447Y1340D03*
X347Y1340D03*
X347Y354D03*
X447Y354D03*
X548Y354D03*
X647Y354D03*
X747Y354D03*
X847Y354D03*
X947Y354D03*
X1046Y354D03*
X1147Y354D03*
X1247Y354D03*
X1346Y354D03*
X1447Y354D03*
X1546Y354D03*
X1647Y354D03*
X1747Y354D03*
X1846Y354D03*
X1947Y354D03*
X2046Y354D03*
X2146Y354D03*
G54D11*
X473Y2215D03*
X473Y2412D03*
X1630Y2616D03*
X1630Y2010D03*
G54D12*
X123Y1918D03*
X123Y1840D03*
X123Y1568D03*
X123Y1490D03*
G54D11*
X1148Y1865D03*
X1148Y1465D03*
X1248Y1865D03*
X1248Y1465D03*
X1348Y1865D03*
X1348Y1465D03*
X1448Y1865D03*
X1448Y1465D03*
X1648Y1865D03*
X1648Y1465D03*
X1548Y1865D03*
X1548Y1465D03*
G54D13*
X598Y3040D03*
X398Y3040D03*
X798Y3040D03*
X1198Y3040D03*
X998Y3040D03*
X1398Y3040D03*
X73Y2415D03*
X73Y2215D03*
X1798Y3040D03*
X1598Y3040D03*
X1998Y3040D03*
G54D14*
X1923Y1990D03*
X1923Y1890D03*
X1923Y1790D03*
X1923Y1690D03*
X1148Y139D03*
X1048Y139D03*
X948Y139D03*
X848Y139D03*
X623Y139D03*
X523Y139D03*
X423Y139D03*
X323Y139D03*
X1673Y139D03*
X1573Y139D03*
X1473Y139D03*
X1373Y139D03*
X1998Y139D03*
X1898Y139D03*
X1923Y2565D03*
X1923Y2465D03*
X1923Y2365D03*
X1923Y2265D03*
X2223Y2565D03*
X2223Y2465D03*
X2223Y2365D03*
X2223Y2265D03*
X723Y1765D03*
X723Y1665D03*
X723Y1565D03*
X598Y1765D03*
X598Y1665D03*
X598Y1565D03*
G54D15*
X798Y3040D03*
X1398Y3040D03*
G54D16*
X73Y2415D03*
G54D15*
X1998Y3040D03*
G54D17*
X472Y1665D02*
X579Y1665D01*
D02*
X472Y2014D02*
X472Y1665D01*
D02*
X1612Y2010D02*
X472Y2014D01*
D02*
X1923Y1690D02*
X742Y1665D01*
D02*
X174Y1490D02*
X136Y1490D01*
D02*
X174Y1838D02*
X174Y1490D01*
D02*
X136Y1839D02*
X174Y1838D01*
D02*
X847Y1490D02*
X847Y1359D01*
D02*
X136Y1490D02*
X847Y1490D01*
D02*
X2047Y1990D02*
X1942Y1990D01*
D02*
X847Y1565D02*
X2047Y1565D01*
D02*
X2047Y1565D02*
X2047Y1990D01*
D02*
X847Y1359D02*
X847Y1565D01*
D02*
X2323Y1990D02*
X2323Y2565D01*
D02*
X2323Y2565D02*
X2242Y2565D01*
D02*
X1942Y1990D02*
X2323Y1990D01*
G54D18*
D02*
X1147Y1790D02*
X1904Y1790D01*
D02*
X1148Y1847D02*
X1147Y1790D01*
G54D17*
D02*
X1148Y64D02*
X1148Y120D01*
D02*
X623Y64D02*
X1148Y64D01*
D02*
X623Y120D02*
X623Y64D01*
D02*
X1672Y64D02*
X2097Y64D01*
D02*
X2097Y64D02*
X2097Y264D01*
D02*
X2097Y264D02*
X2148Y264D01*
D02*
X2148Y264D02*
X2147Y335D01*
D02*
X1673Y120D02*
X1672Y64D01*
D02*
X1672Y64D02*
X1673Y120D01*
D02*
X1148Y64D02*
X1672Y64D01*
D02*
X1148Y120D02*
X1148Y64D01*
G54D18*
D02*
X1573Y264D02*
X1573Y158D01*
D02*
X1948Y264D02*
X1573Y264D01*
D02*
X1947Y335D02*
X1948Y264D01*
D02*
X1048Y239D02*
X1048Y158D01*
D02*
X1448Y239D02*
X1048Y239D01*
D02*
X1447Y335D02*
X1448Y239D01*
D02*
X523Y290D02*
X523Y158D01*
D02*
X1148Y290D02*
X523Y290D01*
D02*
X1147Y335D02*
X1148Y290D01*
G54D17*
D02*
X2148Y565D02*
X2146Y373D01*
D02*
X1548Y565D02*
X2148Y565D01*
D02*
X1546Y373D02*
X1548Y565D01*
D02*
X848Y565D02*
X847Y1320D01*
D02*
X1548Y565D02*
X848Y565D01*
D02*
X47Y1338D02*
X47Y1914D01*
D02*
X47Y1914D02*
X109Y1918D01*
D02*
X328Y1340D02*
X47Y1338D01*
D02*
X2224Y2264D02*
X2237Y2252D01*
D02*
X1942Y2265D02*
X2224Y2264D01*
G04 End of Copper0*
M02*