G04 MADE WITH FRITZING*
G04 WWW.FRITZING.ORG*
G04 DOUBLE SIDED*
G04 HOLES PLATED*
G04 CONTOUR ON CENTER OF CONTOUR VECTOR*
%ASAXBY*%
%FSLAX23Y23*%
%MOIN*%
%OFA0B0*%
%SFA1.0B1.0*%
%ADD10C,0.081824*%
%ADD11C,0.085000*%
%ADD12C,0.067000*%
%ADD13C,0.135984*%
%ADD14C,0.090000*%
%ADD15C,0.088000*%
%ADD16R,0.090000X0.090000*%
%ADD17R,0.089986X0.090000*%
%LNMASK0*%
G90*
G70*
G54D10*
X2146Y1340D03*
X2046Y1340D03*
X1947Y1340D03*
X1846Y1340D03*
X1747Y1340D03*
X1647Y1340D03*
X1546Y1340D03*
X1447Y1340D03*
X1346Y1340D03*
X1247Y1340D03*
X1147Y1340D03*
X1046Y1340D03*
X947Y1340D03*
X847Y1340D03*
X747Y1340D03*
X647Y1340D03*
X548Y1340D03*
X447Y1340D03*
X347Y1340D03*
X347Y354D03*
X447Y354D03*
X548Y354D03*
X647Y354D03*
X747Y354D03*
X847Y354D03*
X947Y354D03*
X1046Y354D03*
X1147Y354D03*
X1247Y354D03*
X1346Y354D03*
X1447Y354D03*
X1546Y354D03*
X1647Y354D03*
X1747Y354D03*
X1846Y354D03*
X1947Y354D03*
X2046Y354D03*
X2146Y354D03*
G54D11*
X473Y2215D03*
X473Y2412D03*
X1630Y2616D03*
X1630Y2010D03*
G54D12*
X123Y1918D03*
X123Y1840D03*
X123Y1568D03*
X123Y1490D03*
G54D11*
X1148Y1865D03*
X1148Y1465D03*
X1248Y1865D03*
X1248Y1465D03*
X1348Y1865D03*
X1348Y1465D03*
X1448Y1865D03*
X1448Y1465D03*
X1648Y1865D03*
X1648Y1465D03*
X1548Y1865D03*
X1548Y1465D03*
G54D13*
X123Y3015D03*
X2223Y3015D03*
X2223Y140D03*
X123Y140D03*
G54D14*
X598Y3040D03*
X398Y3040D03*
X798Y3040D03*
X1198Y3040D03*
X998Y3040D03*
X1398Y3040D03*
X73Y2415D03*
X73Y2215D03*
X1798Y3040D03*
X1598Y3040D03*
X1998Y3040D03*
G54D15*
X1923Y1990D03*
X1923Y1890D03*
X1923Y1790D03*
X1923Y1690D03*
X1148Y139D03*
X1048Y139D03*
X948Y139D03*
X848Y139D03*
X623Y139D03*
X523Y139D03*
X423Y139D03*
X323Y139D03*
X1673Y139D03*
X1573Y139D03*
X1473Y139D03*
X1373Y139D03*
X1998Y139D03*
X1898Y139D03*
X1923Y2565D03*
X1923Y2465D03*
X1923Y2365D03*
X1923Y2265D03*
X2223Y2565D03*
X2223Y2465D03*
X2223Y2365D03*
X2223Y2265D03*
X723Y1765D03*
X723Y1665D03*
X723Y1565D03*
X598Y1765D03*
X598Y1665D03*
X598Y1565D03*
G54D16*
X798Y3040D03*
X1398Y3040D03*
G54D17*
X73Y2415D03*
G54D16*
X1998Y3040D03*
G04 End of Mask0*
M02*