; NON-PLATED HOLES START AT T1
; THROUGH (PLATED) HOLES START AT T100
M48
INCH
T1C0.125984
T100C0.038000
T101C0.038779
T102C0.027559
T103C0.035000
T104C0.040000
T105C0.035051
%
T1
X022226Y030145
X001226Y001395
X001226Y030145
X022226Y001395
T100
X008482Y001390
X018982Y001390
X011482Y001390
X009482Y001390
X019226Y016895
X019226Y018895
X005976Y015645
X006232Y001390
X005976Y016645
X019226Y017895
X005976Y017645
X007226Y015645
X005232Y001390
X007226Y017645
X019226Y024645
X019226Y025645
X019226Y019895
X019982Y001390
X004232Y001390
X010482Y001390
X016732Y001390
X003232Y001390
X022226Y025645
X022226Y024645
X022226Y022645
X019226Y023645
X014732Y001390
X022226Y023645
X019226Y022645
X015732Y001390
X013732Y001390
X007226Y016645
T101
X012471Y003539
X006469Y013395
X004472Y003539
X011467Y013395
X013464Y003539
X015461Y013395
X018462Y003539
X015461Y003539
X016465Y003539
X012471Y013395
X016465Y013395
X018462Y013395
X019466Y013395
X008466Y003539
X009470Y013395
X021463Y013395
X010464Y003539
X010464Y013395
X008466Y013395
X020459Y003539
X009470Y003539
X005476Y003539
X007473Y003539
X004472Y013395
X003469Y003539
X006469Y003539
X014468Y003539
X021463Y003539
X017469Y003539
X005476Y013395
X019466Y003539
X014468Y013395
X011467Y003539
X003469Y013395
X020459Y013395
X017469Y013395
X007473Y013395
X013464Y013395
T102
X001226Y015683
X001226Y019183
X001226Y018395
X001226Y014895
T103
X016476Y014645
X013476Y018645
X012476Y014645
X011476Y018645
X011476Y014645
X013476Y014645
X014476Y014645
X016476Y018645
X015476Y018645
X015476Y014645
X012476Y018645
X014476Y018645
T104
X007976Y030395
X009976Y030395
X015976Y030395
X000726Y022145
X005976Y030395
X013976Y030395
X003976Y030395
X000726Y024145
X017976Y030395
X019976Y030395
X011976Y030395
T105
X004726Y024118
X016296Y020102
X004726Y022145
X016296Y026161
T00
M30
