G04 MADE WITH FRITZING*
G04 WWW.FRITZING.ORG*
G04 DOUBLE SIDED*
G04 HOLES PLATED*
G04 CONTOUR ON CENTER OF CONTOUR VECTOR*
%ASAXBY*%
%FSLAX23Y23*%
%MOIN*%
%OFA0B0*%
%SFA1.0B1.0*%
%ADD10R,2.362200X3.149610X2.346200X3.133610*%
%ADD11C,0.008000*%
%ADD12R,0.001000X0.001000*%
%LNSILK0*%
G90*
G70*
G54D11*
X4Y3146D02*
X2358Y3146D01*
X2358Y4D01*
X4Y4D01*
X4Y3146D01*
D02*
G54D12*
X809Y1053D02*
X814Y1053D01*
X806Y1052D02*
X816Y1052D01*
X805Y1051D02*
X817Y1051D01*
X805Y1050D02*
X818Y1050D01*
X805Y1049D02*
X818Y1049D01*
X804Y1048D02*
X818Y1048D01*
X865Y1048D02*
X898Y1048D01*
X804Y1047D02*
X818Y1047D01*
X863Y1047D02*
X900Y1047D01*
X804Y1046D02*
X818Y1046D01*
X862Y1046D02*
X901Y1046D01*
X804Y1045D02*
X818Y1045D01*
X861Y1045D02*
X902Y1045D01*
X804Y1044D02*
X818Y1044D01*
X860Y1044D02*
X903Y1044D01*
X805Y1043D02*
X818Y1043D01*
X859Y1043D02*
X904Y1043D01*
X805Y1042D02*
X818Y1042D01*
X858Y1042D02*
X904Y1042D01*
X805Y1041D02*
X817Y1041D01*
X858Y1041D02*
X905Y1041D01*
X806Y1040D02*
X817Y1040D01*
X857Y1040D02*
X905Y1040D01*
X808Y1039D02*
X814Y1039D01*
X857Y1039D02*
X905Y1039D01*
X857Y1038D02*
X867Y1038D01*
X896Y1038D02*
X905Y1038D01*
X857Y1037D02*
X866Y1037D01*
X896Y1037D02*
X905Y1037D01*
X856Y1036D02*
X866Y1036D01*
X895Y1036D02*
X905Y1036D01*
X857Y1035D02*
X865Y1035D01*
X895Y1035D02*
X905Y1035D01*
X857Y1034D02*
X865Y1034D01*
X894Y1034D02*
X905Y1034D01*
X857Y1033D02*
X865Y1033D01*
X893Y1033D02*
X904Y1033D01*
X858Y1032D02*
X864Y1032D01*
X892Y1032D02*
X904Y1032D01*
X859Y1031D02*
X863Y1031D01*
X891Y1031D02*
X903Y1031D01*
X891Y1030D02*
X903Y1030D01*
X890Y1029D02*
X902Y1029D01*
X889Y1028D02*
X901Y1028D01*
X580Y1027D02*
X594Y1027D01*
X611Y1027D02*
X615Y1027D01*
X655Y1027D02*
X675Y1027D01*
X722Y1027D02*
X727Y1027D01*
X741Y1027D02*
X747Y1027D01*
X756Y1027D02*
X759Y1027D01*
X807Y1027D02*
X826Y1027D01*
X888Y1027D02*
X900Y1027D01*
X578Y1026D02*
X596Y1026D01*
X610Y1026D02*
X616Y1026D01*
X652Y1026D02*
X678Y1026D01*
X720Y1026D02*
X730Y1026D01*
X738Y1026D02*
X750Y1026D01*
X754Y1026D02*
X761Y1026D01*
X806Y1026D02*
X827Y1026D01*
X888Y1026D02*
X899Y1026D01*
X576Y1025D02*
X598Y1025D01*
X609Y1025D02*
X617Y1025D01*
X651Y1025D02*
X679Y1025D01*
X718Y1025D02*
X731Y1025D01*
X737Y1025D02*
X751Y1025D01*
X754Y1025D02*
X761Y1025D01*
X805Y1025D02*
X828Y1025D01*
X887Y1025D02*
X899Y1025D01*
X575Y1024D02*
X600Y1024D01*
X608Y1024D02*
X617Y1024D01*
X649Y1024D02*
X680Y1024D01*
X717Y1024D02*
X733Y1024D01*
X736Y1024D02*
X762Y1024D01*
X805Y1024D02*
X828Y1024D01*
X886Y1024D02*
X898Y1024D01*
X574Y1023D02*
X601Y1023D01*
X608Y1023D02*
X617Y1023D01*
X648Y1023D02*
X682Y1023D01*
X716Y1023D02*
X762Y1023D01*
X804Y1023D02*
X828Y1023D01*
X885Y1023D02*
X897Y1023D01*
X573Y1022D02*
X603Y1022D01*
X608Y1022D02*
X617Y1022D01*
X647Y1022D02*
X683Y1022D01*
X715Y1022D02*
X762Y1022D01*
X804Y1022D02*
X828Y1022D01*
X884Y1022D02*
X896Y1022D01*
X572Y1021D02*
X604Y1021D01*
X608Y1021D02*
X617Y1021D01*
X646Y1021D02*
X684Y1021D01*
X715Y1021D02*
X762Y1021D01*
X804Y1021D02*
X828Y1021D01*
X884Y1021D02*
X896Y1021D01*
X572Y1020D02*
X606Y1020D01*
X608Y1020D02*
X617Y1020D01*
X645Y1020D02*
X685Y1020D01*
X714Y1020D02*
X762Y1020D01*
X804Y1020D02*
X828Y1020D01*
X883Y1020D02*
X895Y1020D01*
X571Y1019D02*
X617Y1019D01*
X644Y1019D02*
X686Y1019D01*
X714Y1019D02*
X762Y1019D01*
X804Y1019D02*
X827Y1019D01*
X882Y1019D02*
X894Y1019D01*
X571Y1018D02*
X617Y1018D01*
X643Y1018D02*
X687Y1018D01*
X713Y1018D02*
X762Y1018D01*
X804Y1018D02*
X825Y1018D01*
X881Y1018D02*
X893Y1018D01*
X570Y1017D02*
X582Y1017D01*
X593Y1017D02*
X617Y1017D01*
X642Y1017D02*
X656Y1017D01*
X674Y1017D02*
X687Y1017D01*
X713Y1017D02*
X723Y1017D01*
X726Y1017D02*
X742Y1017D01*
X746Y1017D02*
X762Y1017D01*
X804Y1017D02*
X813Y1017D01*
X880Y1017D02*
X892Y1017D01*
X570Y1016D02*
X580Y1016D01*
X594Y1016D02*
X617Y1016D01*
X642Y1016D02*
X654Y1016D01*
X675Y1016D02*
X688Y1016D01*
X713Y1016D02*
X722Y1016D01*
X727Y1016D02*
X742Y1016D01*
X747Y1016D02*
X762Y1016D01*
X804Y1016D02*
X813Y1016D01*
X880Y1016D02*
X892Y1016D01*
X570Y1015D02*
X580Y1015D01*
X596Y1015D02*
X617Y1015D01*
X641Y1015D02*
X653Y1015D01*
X677Y1015D02*
X688Y1015D01*
X713Y1015D02*
X722Y1015D01*
X729Y1015D02*
X741Y1015D01*
X748Y1015D02*
X762Y1015D01*
X804Y1015D02*
X813Y1015D01*
X879Y1015D02*
X891Y1015D01*
X570Y1014D02*
X579Y1014D01*
X597Y1014D02*
X617Y1014D01*
X641Y1014D02*
X652Y1014D01*
X678Y1014D02*
X688Y1014D01*
X713Y1014D02*
X722Y1014D01*
X730Y1014D02*
X741Y1014D01*
X750Y1014D02*
X762Y1014D01*
X804Y1014D02*
X813Y1014D01*
X878Y1014D02*
X890Y1014D01*
X570Y1013D02*
X579Y1013D01*
X599Y1013D02*
X617Y1013D01*
X641Y1013D02*
X651Y1013D01*
X679Y1013D02*
X689Y1013D01*
X713Y1013D02*
X722Y1013D01*
X731Y1013D02*
X741Y1013D01*
X751Y1013D02*
X762Y1013D01*
X804Y1013D02*
X813Y1013D01*
X877Y1013D02*
X889Y1013D01*
X570Y1012D02*
X579Y1012D01*
X601Y1012D02*
X617Y1012D01*
X641Y1012D02*
X650Y1012D01*
X679Y1012D02*
X689Y1012D01*
X713Y1012D02*
X722Y1012D01*
X732Y1012D02*
X741Y1012D01*
X752Y1012D02*
X762Y1012D01*
X804Y1012D02*
X813Y1012D01*
X877Y1012D02*
X889Y1012D01*
X570Y1011D02*
X579Y1011D01*
X602Y1011D02*
X617Y1011D01*
X641Y1011D02*
X650Y1011D01*
X680Y1011D02*
X689Y1011D01*
X713Y1011D02*
X722Y1011D01*
X732Y1011D02*
X741Y1011D01*
X753Y1011D02*
X762Y1011D01*
X804Y1011D02*
X813Y1011D01*
X876Y1011D02*
X888Y1011D01*
X570Y1010D02*
X579Y1010D01*
X604Y1010D02*
X617Y1010D01*
X640Y1010D02*
X650Y1010D01*
X680Y1010D02*
X689Y1010D01*
X713Y1010D02*
X722Y1010D01*
X732Y1010D02*
X741Y1010D01*
X753Y1010D02*
X762Y1010D01*
X804Y1010D02*
X813Y1010D01*
X875Y1010D02*
X887Y1010D01*
X570Y1009D02*
X579Y1009D01*
X605Y1009D02*
X617Y1009D01*
X640Y1009D02*
X650Y1009D01*
X680Y1009D02*
X689Y1009D01*
X713Y1009D02*
X722Y1009D01*
X732Y1009D02*
X741Y1009D01*
X753Y1009D02*
X762Y1009D01*
X804Y1009D02*
X813Y1009D01*
X874Y1009D02*
X886Y1009D01*
X570Y1008D02*
X579Y1008D01*
X607Y1008D02*
X617Y1008D01*
X640Y1008D02*
X650Y1008D01*
X680Y1008D02*
X689Y1008D01*
X713Y1008D02*
X722Y1008D01*
X732Y1008D02*
X741Y1008D01*
X753Y1008D02*
X762Y1008D01*
X804Y1008D02*
X813Y1008D01*
X873Y1008D02*
X885Y1008D01*
X570Y1007D02*
X579Y1007D01*
X608Y1007D02*
X617Y1007D01*
X640Y1007D02*
X650Y1007D01*
X680Y1007D02*
X689Y1007D01*
X713Y1007D02*
X722Y1007D01*
X732Y1007D02*
X741Y1007D01*
X753Y1007D02*
X762Y1007D01*
X804Y1007D02*
X813Y1007D01*
X873Y1007D02*
X885Y1007D01*
X570Y1006D02*
X579Y1006D01*
X608Y1006D02*
X617Y1006D01*
X640Y1006D02*
X650Y1006D01*
X680Y1006D02*
X689Y1006D01*
X713Y1006D02*
X722Y1006D01*
X732Y1006D02*
X741Y1006D01*
X753Y1006D02*
X762Y1006D01*
X804Y1006D02*
X813Y1006D01*
X872Y1006D02*
X884Y1006D01*
X569Y1005D02*
X579Y1005D01*
X608Y1005D02*
X617Y1005D01*
X640Y1005D02*
X650Y1005D01*
X680Y1005D02*
X689Y1005D01*
X713Y1005D02*
X722Y1005D01*
X732Y1005D02*
X741Y1005D01*
X753Y1005D02*
X762Y1005D01*
X804Y1005D02*
X813Y1005D01*
X871Y1005D02*
X883Y1005D01*
X569Y1004D02*
X579Y1004D01*
X608Y1004D02*
X617Y1004D01*
X640Y1004D02*
X650Y1004D01*
X680Y1004D02*
X689Y1004D01*
X713Y1004D02*
X722Y1004D01*
X732Y1004D02*
X741Y1004D01*
X753Y1004D02*
X762Y1004D01*
X804Y1004D02*
X813Y1004D01*
X870Y1004D02*
X882Y1004D01*
X569Y1003D02*
X579Y1003D01*
X608Y1003D02*
X617Y1003D01*
X640Y1003D02*
X650Y1003D01*
X680Y1003D02*
X689Y1003D01*
X713Y1003D02*
X722Y1003D01*
X732Y1003D02*
X741Y1003D01*
X753Y1003D02*
X762Y1003D01*
X804Y1003D02*
X813Y1003D01*
X870Y1003D02*
X882Y1003D01*
X569Y1002D02*
X578Y1002D01*
X608Y1002D02*
X617Y1002D01*
X640Y1002D02*
X650Y1002D01*
X680Y1002D02*
X689Y1002D01*
X713Y1002D02*
X722Y1002D01*
X732Y1002D02*
X741Y1002D01*
X753Y1002D02*
X762Y1002D01*
X804Y1002D02*
X813Y1002D01*
X869Y1002D02*
X881Y1002D01*
X569Y1001D02*
X578Y1001D01*
X608Y1001D02*
X617Y1001D01*
X640Y1001D02*
X650Y1001D01*
X680Y1001D02*
X689Y1001D01*
X713Y1001D02*
X722Y1001D01*
X732Y1001D02*
X741Y1001D01*
X753Y1001D02*
X762Y1001D01*
X804Y1001D02*
X813Y1001D01*
X868Y1001D02*
X880Y1001D01*
X569Y1000D02*
X578Y1000D01*
X608Y1000D02*
X617Y1000D01*
X640Y1000D02*
X650Y1000D01*
X680Y1000D02*
X689Y1000D01*
X713Y1000D02*
X722Y1000D01*
X732Y1000D02*
X741Y1000D01*
X753Y1000D02*
X762Y1000D01*
X804Y1000D02*
X813Y1000D01*
X867Y1000D02*
X879Y1000D01*
X569Y999D02*
X578Y999D01*
X608Y999D02*
X617Y999D01*
X640Y999D02*
X650Y999D01*
X680Y999D02*
X689Y999D01*
X713Y999D02*
X722Y999D01*
X732Y999D02*
X741Y999D01*
X753Y999D02*
X762Y999D01*
X804Y999D02*
X813Y999D01*
X866Y999D02*
X878Y999D01*
X569Y998D02*
X578Y998D01*
X608Y998D02*
X617Y998D01*
X640Y998D02*
X650Y998D01*
X680Y998D02*
X689Y998D01*
X713Y998D02*
X722Y998D01*
X732Y998D02*
X741Y998D01*
X753Y998D02*
X762Y998D01*
X804Y998D02*
X813Y998D01*
X866Y998D02*
X878Y998D01*
X569Y997D02*
X578Y997D01*
X608Y997D02*
X617Y997D01*
X640Y997D02*
X650Y997D01*
X680Y997D02*
X689Y997D01*
X713Y997D02*
X722Y997D01*
X732Y997D02*
X741Y997D01*
X753Y997D02*
X762Y997D01*
X804Y997D02*
X813Y997D01*
X865Y997D02*
X877Y997D01*
X569Y996D02*
X578Y996D01*
X608Y996D02*
X617Y996D01*
X640Y996D02*
X650Y996D01*
X680Y996D02*
X689Y996D01*
X712Y996D02*
X722Y996D01*
X732Y996D02*
X741Y996D01*
X753Y996D02*
X762Y996D01*
X804Y996D02*
X813Y996D01*
X864Y996D02*
X876Y996D01*
X569Y995D02*
X578Y995D01*
X608Y995D02*
X617Y995D01*
X640Y995D02*
X650Y995D01*
X680Y995D02*
X689Y995D01*
X712Y995D02*
X722Y995D01*
X732Y995D02*
X741Y995D01*
X753Y995D02*
X762Y995D01*
X804Y995D02*
X813Y995D01*
X863Y995D02*
X875Y995D01*
X569Y994D02*
X578Y994D01*
X608Y994D02*
X617Y994D01*
X640Y994D02*
X650Y994D01*
X680Y994D02*
X689Y994D01*
X712Y994D02*
X721Y994D01*
X732Y994D02*
X741Y994D01*
X753Y994D02*
X762Y994D01*
X804Y994D02*
X813Y994D01*
X863Y994D02*
X875Y994D01*
X569Y993D02*
X578Y993D01*
X608Y993D02*
X617Y993D01*
X640Y993D02*
X650Y993D01*
X680Y993D02*
X689Y993D01*
X712Y993D02*
X721Y993D01*
X732Y993D02*
X741Y993D01*
X753Y993D02*
X762Y993D01*
X804Y993D02*
X813Y993D01*
X862Y993D02*
X874Y993D01*
X569Y992D02*
X578Y992D01*
X608Y992D02*
X617Y992D01*
X640Y992D02*
X650Y992D01*
X680Y992D02*
X689Y992D01*
X712Y992D02*
X721Y992D01*
X732Y992D02*
X741Y992D01*
X753Y992D02*
X762Y992D01*
X804Y992D02*
X813Y992D01*
X861Y992D02*
X873Y992D01*
X569Y991D02*
X578Y991D01*
X608Y991D02*
X617Y991D01*
X640Y991D02*
X650Y991D01*
X680Y991D02*
X689Y991D01*
X712Y991D02*
X721Y991D01*
X732Y991D02*
X741Y991D01*
X753Y991D02*
X762Y991D01*
X804Y991D02*
X813Y991D01*
X860Y991D02*
X872Y991D01*
X569Y990D02*
X578Y990D01*
X608Y990D02*
X617Y990D01*
X640Y990D02*
X650Y990D01*
X680Y990D02*
X689Y990D01*
X712Y990D02*
X721Y990D01*
X732Y990D02*
X741Y990D01*
X753Y990D02*
X762Y990D01*
X804Y990D02*
X813Y990D01*
X859Y990D02*
X872Y990D01*
X569Y989D02*
X578Y989D01*
X608Y989D02*
X617Y989D01*
X640Y989D02*
X650Y989D01*
X680Y989D02*
X689Y989D01*
X712Y989D02*
X721Y989D01*
X732Y989D02*
X741Y989D01*
X753Y989D02*
X762Y989D01*
X804Y989D02*
X813Y989D01*
X859Y989D02*
X871Y989D01*
X899Y989D02*
X902Y989D01*
X569Y988D02*
X578Y988D01*
X608Y988D02*
X617Y988D01*
X641Y988D02*
X650Y988D01*
X680Y988D02*
X689Y988D01*
X712Y988D02*
X721Y988D01*
X732Y988D02*
X741Y988D01*
X753Y988D02*
X762Y988D01*
X804Y988D02*
X813Y988D01*
X858Y988D02*
X870Y988D01*
X898Y988D02*
X904Y988D01*
X569Y987D02*
X578Y987D01*
X608Y987D02*
X617Y987D01*
X641Y987D02*
X650Y987D01*
X680Y987D02*
X689Y987D01*
X712Y987D02*
X721Y987D01*
X732Y987D02*
X741Y987D01*
X753Y987D02*
X762Y987D01*
X804Y987D02*
X813Y987D01*
X858Y987D02*
X869Y987D01*
X897Y987D02*
X904Y987D01*
X569Y986D02*
X578Y986D01*
X608Y986D02*
X617Y986D01*
X641Y986D02*
X651Y986D01*
X679Y986D02*
X689Y986D01*
X712Y986D02*
X721Y986D01*
X732Y986D02*
X741Y986D01*
X753Y986D02*
X762Y986D01*
X804Y986D02*
X813Y986D01*
X857Y986D02*
X868Y986D01*
X896Y986D02*
X905Y986D01*
X569Y985D02*
X578Y985D01*
X608Y985D02*
X617Y985D01*
X641Y985D02*
X652Y985D01*
X678Y985D02*
X689Y985D01*
X712Y985D02*
X721Y985D01*
X732Y985D02*
X741Y985D01*
X753Y985D02*
X762Y985D01*
X804Y985D02*
X813Y985D01*
X857Y985D02*
X868Y985D01*
X896Y985D02*
X905Y985D01*
X569Y984D02*
X578Y984D01*
X608Y984D02*
X617Y984D01*
X641Y984D02*
X653Y984D01*
X677Y984D02*
X688Y984D01*
X712Y984D02*
X721Y984D01*
X732Y984D02*
X741Y984D01*
X753Y984D02*
X762Y984D01*
X804Y984D02*
X813Y984D01*
X857Y984D02*
X867Y984D01*
X896Y984D02*
X905Y984D01*
X569Y983D02*
X578Y983D01*
X608Y983D02*
X617Y983D01*
X642Y983D02*
X654Y983D01*
X676Y983D02*
X688Y983D01*
X712Y983D02*
X721Y983D01*
X732Y983D02*
X741Y983D01*
X753Y983D02*
X762Y983D01*
X804Y983D02*
X813Y983D01*
X856Y983D02*
X866Y983D01*
X896Y983D02*
X905Y983D01*
X569Y982D02*
X578Y982D01*
X608Y982D02*
X617Y982D01*
X642Y982D02*
X655Y982D01*
X675Y982D02*
X688Y982D01*
X712Y982D02*
X721Y982D01*
X732Y982D02*
X741Y982D01*
X753Y982D02*
X762Y982D01*
X804Y982D02*
X813Y982D01*
X856Y982D02*
X866Y982D01*
X895Y982D02*
X905Y982D01*
X569Y981D02*
X578Y981D01*
X608Y981D02*
X617Y981D01*
X643Y981D02*
X687Y981D01*
X712Y981D02*
X721Y981D01*
X732Y981D02*
X741Y981D01*
X753Y981D02*
X762Y981D01*
X795Y981D02*
X823Y981D01*
X857Y981D02*
X905Y981D01*
X569Y980D02*
X578Y980D01*
X608Y980D02*
X617Y980D01*
X644Y980D02*
X686Y980D01*
X712Y980D02*
X721Y980D01*
X732Y980D02*
X741Y980D01*
X753Y980D02*
X762Y980D01*
X792Y980D02*
X826Y980D01*
X857Y980D02*
X904Y980D01*
X569Y979D02*
X578Y979D01*
X608Y979D02*
X617Y979D01*
X645Y979D02*
X685Y979D01*
X712Y979D02*
X721Y979D01*
X732Y979D02*
X741Y979D01*
X753Y979D02*
X762Y979D01*
X791Y979D02*
X827Y979D01*
X857Y979D02*
X904Y979D01*
X569Y978D02*
X578Y978D01*
X608Y978D02*
X617Y978D01*
X646Y978D02*
X684Y978D01*
X712Y978D02*
X721Y978D01*
X732Y978D02*
X741Y978D01*
X753Y978D02*
X762Y978D01*
X790Y978D02*
X828Y978D01*
X857Y978D02*
X904Y978D01*
X569Y977D02*
X578Y977D01*
X608Y977D02*
X617Y977D01*
X647Y977D02*
X683Y977D01*
X712Y977D02*
X721Y977D01*
X732Y977D02*
X741Y977D01*
X753Y977D02*
X762Y977D01*
X790Y977D02*
X828Y977D01*
X858Y977D02*
X903Y977D01*
X569Y976D02*
X578Y976D01*
X608Y976D02*
X617Y976D01*
X648Y976D02*
X682Y976D01*
X712Y976D02*
X721Y976D01*
X732Y976D02*
X741Y976D01*
X753Y976D02*
X762Y976D01*
X789Y976D02*
X828Y976D01*
X858Y976D02*
X902Y976D01*
X569Y975D02*
X577Y975D01*
X608Y975D02*
X617Y975D01*
X649Y975D02*
X681Y975D01*
X712Y975D02*
X721Y975D01*
X733Y975D02*
X741Y975D01*
X753Y975D02*
X762Y975D01*
X790Y975D02*
X828Y975D01*
X859Y975D02*
X901Y975D01*
X569Y974D02*
X577Y974D01*
X609Y974D02*
X617Y974D01*
X650Y974D02*
X680Y974D01*
X712Y974D02*
X720Y974D01*
X733Y974D02*
X741Y974D01*
X753Y974D02*
X762Y974D01*
X790Y974D02*
X828Y974D01*
X860Y974D02*
X900Y974D01*
X570Y973D02*
X577Y973D01*
X609Y973D02*
X616Y973D01*
X652Y973D02*
X678Y973D01*
X713Y973D02*
X720Y973D01*
X733Y973D02*
X740Y973D01*
X754Y973D02*
X761Y973D01*
X791Y973D02*
X827Y973D01*
X861Y973D02*
X899Y973D01*
X571Y972D02*
X576Y972D01*
X610Y972D02*
X615Y972D01*
X654Y972D02*
X676Y972D01*
X714Y972D02*
X719Y972D01*
X734Y972D02*
X739Y972D01*
X755Y972D02*
X760Y972D01*
X792Y972D02*
X826Y972D01*
X863Y972D02*
X897Y972D01*
X573Y971D02*
X573Y971D01*
X613Y971D02*
X613Y971D01*
X658Y971D02*
X671Y971D01*
X716Y971D02*
X716Y971D01*
X737Y971D02*
X737Y971D01*
X758Y971D02*
X758Y971D01*
X794Y971D02*
X824Y971D01*
X867Y971D02*
X893Y971D01*
X643Y923D02*
X676Y923D01*
X702Y923D02*
X722Y923D01*
X774Y923D02*
X820Y923D01*
X640Y922D02*
X676Y922D01*
X701Y922D02*
X725Y922D01*
X773Y922D02*
X820Y922D01*
X638Y921D02*
X676Y921D01*
X700Y921D02*
X726Y921D01*
X772Y921D02*
X820Y921D01*
X636Y920D02*
X676Y920D01*
X699Y920D02*
X728Y920D01*
X771Y920D02*
X820Y920D01*
X635Y919D02*
X676Y919D01*
X699Y919D02*
X729Y919D01*
X771Y919D02*
X820Y919D01*
X634Y918D02*
X676Y918D01*
X699Y918D02*
X730Y918D01*
X771Y918D02*
X820Y918D01*
X633Y917D02*
X676Y917D01*
X699Y917D02*
X731Y917D01*
X771Y917D02*
X820Y917D01*
X632Y916D02*
X676Y916D01*
X700Y916D02*
X731Y916D01*
X772Y916D02*
X820Y916D01*
X631Y915D02*
X676Y915D01*
X701Y915D02*
X732Y915D01*
X773Y915D02*
X820Y915D01*
X630Y914D02*
X676Y914D01*
X702Y914D02*
X733Y914D01*
X774Y914D02*
X820Y914D01*
X630Y913D02*
X644Y913D01*
X667Y913D02*
X676Y913D01*
X721Y913D02*
X734Y913D01*
X811Y913D02*
X820Y913D01*
X629Y912D02*
X642Y912D01*
X667Y912D02*
X676Y912D01*
X722Y912D02*
X734Y912D01*
X811Y912D02*
X820Y912D01*
X629Y911D02*
X640Y911D01*
X667Y911D02*
X676Y911D01*
X723Y911D02*
X735Y911D01*
X811Y911D02*
X820Y911D01*
X628Y910D02*
X639Y910D01*
X667Y910D02*
X676Y910D01*
X724Y910D02*
X736Y910D01*
X811Y910D02*
X820Y910D01*
X628Y909D02*
X638Y909D01*
X667Y909D02*
X676Y909D01*
X725Y909D02*
X737Y909D01*
X811Y909D02*
X820Y909D01*
X628Y908D02*
X638Y908D01*
X667Y908D02*
X676Y908D01*
X726Y908D02*
X738Y908D01*
X811Y908D02*
X820Y908D01*
X627Y907D02*
X637Y907D01*
X667Y907D02*
X676Y907D01*
X726Y907D02*
X738Y907D01*
X811Y907D02*
X820Y907D01*
X627Y906D02*
X637Y906D01*
X667Y906D02*
X676Y906D01*
X727Y906D02*
X739Y906D01*
X811Y906D02*
X820Y906D01*
X627Y905D02*
X636Y905D01*
X667Y905D02*
X676Y905D01*
X728Y905D02*
X740Y905D01*
X811Y905D02*
X820Y905D01*
X627Y904D02*
X636Y904D01*
X667Y904D02*
X676Y904D01*
X729Y904D02*
X741Y904D01*
X811Y904D02*
X820Y904D01*
X627Y903D02*
X636Y903D01*
X667Y903D02*
X676Y903D01*
X730Y903D02*
X741Y903D01*
X811Y903D02*
X820Y903D01*
X627Y902D02*
X636Y902D01*
X667Y902D02*
X676Y902D01*
X730Y902D02*
X742Y902D01*
X811Y902D02*
X820Y902D01*
X627Y901D02*
X636Y901D01*
X667Y901D02*
X676Y901D01*
X731Y901D02*
X743Y901D01*
X811Y901D02*
X820Y901D01*
X627Y900D02*
X636Y900D01*
X667Y900D02*
X676Y900D01*
X732Y900D02*
X744Y900D01*
X811Y900D02*
X820Y900D01*
X627Y899D02*
X636Y899D01*
X667Y899D02*
X676Y899D01*
X733Y899D02*
X744Y899D01*
X811Y899D02*
X820Y899D01*
X627Y898D02*
X636Y898D01*
X667Y898D02*
X676Y898D01*
X734Y898D02*
X745Y898D01*
X811Y898D02*
X820Y898D01*
X627Y897D02*
X637Y897D01*
X667Y897D02*
X676Y897D01*
X734Y897D02*
X746Y897D01*
X811Y897D02*
X820Y897D01*
X627Y896D02*
X637Y896D01*
X667Y896D02*
X676Y896D01*
X735Y896D02*
X746Y896D01*
X811Y896D02*
X820Y896D01*
X628Y895D02*
X637Y895D01*
X667Y895D02*
X676Y895D01*
X736Y895D02*
X747Y895D01*
X811Y895D02*
X820Y895D01*
X628Y894D02*
X638Y894D01*
X667Y894D02*
X676Y894D01*
X737Y894D02*
X747Y894D01*
X811Y894D02*
X820Y894D01*
X628Y893D02*
X639Y893D01*
X667Y893D02*
X676Y893D01*
X737Y893D02*
X747Y893D01*
X811Y893D02*
X820Y893D01*
X629Y892D02*
X640Y892D01*
X667Y892D02*
X676Y892D01*
X738Y892D02*
X747Y892D01*
X811Y892D02*
X820Y892D01*
X629Y891D02*
X641Y891D01*
X667Y891D02*
X676Y891D01*
X738Y891D02*
X748Y891D01*
X811Y891D02*
X820Y891D01*
X630Y890D02*
X643Y890D01*
X667Y890D02*
X676Y890D01*
X739Y890D02*
X748Y890D01*
X811Y890D02*
X820Y890D01*
X630Y889D02*
X676Y889D01*
X739Y889D02*
X748Y889D01*
X794Y889D02*
X820Y889D01*
X631Y888D02*
X676Y888D01*
X739Y888D02*
X748Y888D01*
X793Y888D02*
X820Y888D01*
X632Y887D02*
X676Y887D01*
X739Y887D02*
X748Y887D01*
X792Y887D02*
X820Y887D01*
X633Y886D02*
X676Y886D01*
X739Y886D02*
X748Y886D01*
X791Y886D02*
X820Y886D01*
X634Y885D02*
X676Y885D01*
X739Y885D02*
X748Y885D01*
X791Y885D02*
X820Y885D01*
X634Y884D02*
X676Y884D01*
X739Y884D02*
X748Y884D01*
X791Y884D02*
X820Y884D01*
X633Y883D02*
X676Y883D01*
X739Y883D02*
X748Y883D01*
X791Y883D02*
X820Y883D01*
X632Y882D02*
X676Y882D01*
X739Y882D02*
X748Y882D01*
X792Y882D02*
X820Y882D01*
X631Y881D02*
X676Y881D01*
X700Y881D02*
X718Y881D01*
X739Y881D02*
X748Y881D01*
X792Y881D02*
X820Y881D01*
X630Y880D02*
X676Y880D01*
X699Y880D02*
X721Y880D01*
X739Y880D02*
X748Y880D01*
X794Y880D02*
X820Y880D01*
X630Y879D02*
X644Y879D01*
X667Y879D02*
X676Y879D01*
X699Y879D02*
X722Y879D01*
X739Y879D02*
X748Y879D01*
X811Y879D02*
X820Y879D01*
X629Y878D02*
X641Y878D01*
X667Y878D02*
X676Y878D01*
X699Y878D02*
X723Y878D01*
X739Y878D02*
X748Y878D01*
X811Y878D02*
X820Y878D01*
X629Y877D02*
X640Y877D01*
X667Y877D02*
X676Y877D01*
X699Y877D02*
X723Y877D01*
X739Y877D02*
X748Y877D01*
X811Y877D02*
X820Y877D01*
X628Y876D02*
X639Y876D01*
X667Y876D02*
X676Y876D01*
X699Y876D02*
X723Y876D01*
X739Y876D02*
X748Y876D01*
X811Y876D02*
X820Y876D01*
X628Y875D02*
X638Y875D01*
X667Y875D02*
X676Y875D01*
X699Y875D02*
X723Y875D01*
X739Y875D02*
X748Y875D01*
X811Y875D02*
X820Y875D01*
X628Y874D02*
X637Y874D01*
X667Y874D02*
X676Y874D01*
X699Y874D02*
X723Y874D01*
X739Y874D02*
X748Y874D01*
X811Y874D02*
X820Y874D01*
X627Y873D02*
X637Y873D01*
X667Y873D02*
X676Y873D01*
X699Y873D02*
X722Y873D01*
X739Y873D02*
X748Y873D01*
X811Y873D02*
X820Y873D01*
X627Y872D02*
X637Y872D01*
X667Y872D02*
X676Y872D01*
X699Y872D02*
X721Y872D01*
X739Y872D02*
X748Y872D01*
X811Y872D02*
X820Y872D01*
X627Y871D02*
X636Y871D01*
X667Y871D02*
X676Y871D01*
X699Y871D02*
X719Y871D01*
X739Y871D02*
X748Y871D01*
X811Y871D02*
X820Y871D01*
X627Y870D02*
X636Y870D01*
X667Y870D02*
X676Y870D01*
X699Y870D02*
X708Y870D01*
X739Y870D02*
X748Y870D01*
X811Y870D02*
X820Y870D01*
X627Y869D02*
X636Y869D01*
X667Y869D02*
X676Y869D01*
X699Y869D02*
X708Y869D01*
X739Y869D02*
X748Y869D01*
X811Y869D02*
X820Y869D01*
X627Y868D02*
X636Y868D01*
X667Y868D02*
X676Y868D01*
X699Y868D02*
X708Y868D01*
X739Y868D02*
X748Y868D01*
X811Y868D02*
X820Y868D01*
X627Y867D02*
X636Y867D01*
X667Y867D02*
X676Y867D01*
X699Y867D02*
X708Y867D01*
X739Y867D02*
X748Y867D01*
X811Y867D02*
X820Y867D01*
X627Y866D02*
X636Y866D01*
X667Y866D02*
X676Y866D01*
X699Y866D02*
X708Y866D01*
X739Y866D02*
X748Y866D01*
X811Y866D02*
X820Y866D01*
X627Y865D02*
X636Y865D01*
X667Y865D02*
X676Y865D01*
X699Y865D02*
X708Y865D01*
X739Y865D02*
X748Y865D01*
X811Y865D02*
X820Y865D01*
X627Y864D02*
X636Y864D01*
X667Y864D02*
X676Y864D01*
X699Y864D02*
X708Y864D01*
X739Y864D02*
X748Y864D01*
X811Y864D02*
X820Y864D01*
X627Y863D02*
X637Y863D01*
X667Y863D02*
X676Y863D01*
X699Y863D02*
X708Y863D01*
X739Y863D02*
X748Y863D01*
X811Y863D02*
X820Y863D01*
X627Y862D02*
X637Y862D01*
X667Y862D02*
X676Y862D01*
X699Y862D02*
X708Y862D01*
X739Y862D02*
X748Y862D01*
X811Y862D02*
X820Y862D01*
X628Y861D02*
X637Y861D01*
X667Y861D02*
X676Y861D01*
X699Y861D02*
X708Y861D01*
X739Y861D02*
X748Y861D01*
X811Y861D02*
X820Y861D01*
X628Y860D02*
X638Y860D01*
X667Y860D02*
X676Y860D01*
X699Y860D02*
X708Y860D01*
X739Y860D02*
X748Y860D01*
X811Y860D02*
X820Y860D01*
X628Y859D02*
X639Y859D01*
X667Y859D02*
X676Y859D01*
X699Y859D02*
X709Y859D01*
X738Y859D02*
X748Y859D01*
X811Y859D02*
X820Y859D01*
X629Y858D02*
X640Y858D01*
X667Y858D02*
X676Y858D01*
X699Y858D02*
X709Y858D01*
X738Y858D02*
X748Y858D01*
X811Y858D02*
X820Y858D01*
X629Y857D02*
X641Y857D01*
X667Y857D02*
X676Y857D01*
X700Y857D02*
X710Y857D01*
X737Y857D02*
X747Y857D01*
X811Y857D02*
X820Y857D01*
X630Y856D02*
X643Y856D01*
X667Y856D02*
X676Y856D01*
X700Y856D02*
X711Y856D01*
X736Y856D02*
X747Y856D01*
X811Y856D02*
X820Y856D01*
X630Y855D02*
X676Y855D01*
X700Y855D02*
X747Y855D01*
X774Y855D02*
X820Y855D01*
X631Y854D02*
X676Y854D01*
X701Y854D02*
X746Y854D01*
X773Y854D02*
X820Y854D01*
X632Y853D02*
X676Y853D01*
X701Y853D02*
X746Y853D01*
X772Y853D02*
X820Y853D01*
X633Y852D02*
X676Y852D01*
X702Y852D02*
X745Y852D01*
X771Y852D02*
X820Y852D01*
X634Y851D02*
X676Y851D01*
X703Y851D02*
X744Y851D01*
X771Y851D02*
X820Y851D01*
X635Y850D02*
X676Y850D01*
X704Y850D02*
X744Y850D01*
X771Y850D02*
X820Y850D01*
X636Y849D02*
X676Y849D01*
X705Y849D02*
X742Y849D01*
X771Y849D02*
X820Y849D01*
X638Y848D02*
X676Y848D01*
X706Y848D02*
X741Y848D01*
X772Y848D02*
X820Y848D01*
X640Y847D02*
X676Y847D01*
X708Y847D02*
X739Y847D01*
X773Y847D02*
X820Y847D01*
X643Y846D02*
X676Y846D01*
X710Y846D02*
X737Y846D01*
X774Y846D02*
X820Y846D01*
X569Y797D02*
X606Y797D01*
X713Y797D02*
X750Y797D01*
X857Y797D02*
X898Y797D01*
X567Y796D02*
X608Y796D01*
X711Y796D02*
X752Y796D01*
X855Y796D02*
X899Y796D01*
X566Y795D02*
X609Y795D01*
X710Y795D02*
X753Y795D01*
X854Y795D02*
X899Y795D01*
X565Y794D02*
X610Y794D01*
X709Y794D02*
X754Y794D01*
X853Y794D02*
X900Y794D01*
X565Y793D02*
X610Y793D01*
X709Y793D02*
X754Y793D01*
X853Y793D02*
X900Y793D01*
X564Y792D02*
X611Y792D01*
X708Y792D02*
X755Y792D01*
X852Y792D02*
X900Y792D01*
X564Y791D02*
X611Y791D01*
X708Y791D02*
X755Y791D01*
X852Y791D02*
X899Y791D01*
X563Y790D02*
X612Y790D01*
X707Y790D02*
X756Y790D01*
X851Y790D02*
X899Y790D01*
X563Y789D02*
X612Y789D01*
X707Y789D02*
X756Y789D01*
X851Y789D02*
X898Y789D01*
X563Y788D02*
X612Y788D01*
X707Y788D02*
X756Y788D01*
X851Y788D02*
X896Y788D01*
X563Y787D02*
X572Y787D01*
X603Y787D02*
X612Y787D01*
X707Y787D02*
X716Y787D01*
X747Y787D02*
X756Y787D01*
X851Y787D02*
X860Y787D01*
X563Y786D02*
X572Y786D01*
X603Y786D02*
X612Y786D01*
X707Y786D02*
X716Y786D01*
X747Y786D02*
X756Y786D01*
X851Y786D02*
X860Y786D01*
X563Y785D02*
X572Y785D01*
X603Y785D02*
X612Y785D01*
X707Y785D02*
X716Y785D01*
X747Y785D02*
X756Y785D01*
X851Y785D02*
X860Y785D01*
X563Y784D02*
X572Y784D01*
X603Y784D02*
X612Y784D01*
X707Y784D02*
X716Y784D01*
X747Y784D02*
X756Y784D01*
X851Y784D02*
X860Y784D01*
X563Y783D02*
X572Y783D01*
X603Y783D02*
X612Y783D01*
X707Y783D02*
X716Y783D01*
X747Y783D02*
X756Y783D01*
X851Y783D02*
X860Y783D01*
X563Y782D02*
X572Y782D01*
X603Y782D02*
X612Y782D01*
X707Y782D02*
X716Y782D01*
X747Y782D02*
X756Y782D01*
X851Y782D02*
X860Y782D01*
X563Y781D02*
X572Y781D01*
X603Y781D02*
X612Y781D01*
X707Y781D02*
X716Y781D01*
X747Y781D02*
X756Y781D01*
X851Y781D02*
X860Y781D01*
X563Y780D02*
X572Y780D01*
X603Y780D02*
X612Y780D01*
X707Y780D02*
X716Y780D01*
X747Y780D02*
X756Y780D01*
X851Y780D02*
X860Y780D01*
X563Y779D02*
X572Y779D01*
X603Y779D02*
X612Y779D01*
X707Y779D02*
X716Y779D01*
X747Y779D02*
X756Y779D01*
X851Y779D02*
X860Y779D01*
X563Y778D02*
X572Y778D01*
X603Y778D02*
X612Y778D01*
X707Y778D02*
X716Y778D01*
X747Y778D02*
X756Y778D01*
X851Y778D02*
X860Y778D01*
X563Y777D02*
X572Y777D01*
X603Y777D02*
X612Y777D01*
X707Y777D02*
X716Y777D01*
X747Y777D02*
X756Y777D01*
X851Y777D02*
X860Y777D01*
X563Y776D02*
X572Y776D01*
X603Y776D02*
X612Y776D01*
X707Y776D02*
X716Y776D01*
X747Y776D02*
X756Y776D01*
X851Y776D02*
X860Y776D01*
X563Y775D02*
X572Y775D01*
X603Y775D02*
X612Y775D01*
X707Y775D02*
X716Y775D01*
X747Y775D02*
X756Y775D01*
X851Y775D02*
X860Y775D01*
X563Y774D02*
X572Y774D01*
X603Y774D02*
X612Y774D01*
X707Y774D02*
X716Y774D01*
X747Y774D02*
X756Y774D01*
X851Y774D02*
X860Y774D01*
X563Y773D02*
X572Y773D01*
X603Y773D02*
X612Y773D01*
X707Y773D02*
X716Y773D01*
X747Y773D02*
X756Y773D01*
X851Y773D02*
X860Y773D01*
X563Y772D02*
X572Y772D01*
X603Y772D02*
X612Y772D01*
X707Y772D02*
X716Y772D01*
X747Y772D02*
X756Y772D01*
X851Y772D02*
X860Y772D01*
X563Y771D02*
X572Y771D01*
X603Y771D02*
X612Y771D01*
X707Y771D02*
X716Y771D01*
X747Y771D02*
X756Y771D01*
X851Y771D02*
X860Y771D01*
X563Y770D02*
X572Y770D01*
X603Y770D02*
X612Y770D01*
X707Y770D02*
X716Y770D01*
X747Y770D02*
X756Y770D01*
X851Y770D02*
X860Y770D01*
X563Y769D02*
X572Y769D01*
X603Y769D02*
X612Y769D01*
X707Y769D02*
X716Y769D01*
X747Y769D02*
X756Y769D01*
X851Y769D02*
X860Y769D01*
X563Y768D02*
X572Y768D01*
X603Y768D02*
X612Y768D01*
X707Y768D02*
X716Y768D01*
X747Y768D02*
X756Y768D01*
X851Y768D02*
X860Y768D01*
X563Y767D02*
X572Y767D01*
X603Y767D02*
X612Y767D01*
X707Y767D02*
X716Y767D01*
X747Y767D02*
X756Y767D01*
X851Y767D02*
X860Y767D01*
X563Y766D02*
X572Y766D01*
X603Y766D02*
X612Y766D01*
X707Y766D02*
X716Y766D01*
X747Y766D02*
X756Y766D01*
X851Y766D02*
X860Y766D01*
X563Y765D02*
X572Y765D01*
X603Y765D02*
X612Y765D01*
X707Y765D02*
X716Y765D01*
X747Y765D02*
X756Y765D01*
X851Y765D02*
X860Y765D01*
X563Y764D02*
X572Y764D01*
X603Y764D02*
X612Y764D01*
X707Y764D02*
X716Y764D01*
X747Y764D02*
X756Y764D01*
X851Y764D02*
X861Y764D01*
X563Y763D02*
X572Y763D01*
X603Y763D02*
X612Y763D01*
X707Y763D02*
X716Y763D01*
X747Y763D02*
X756Y763D01*
X851Y763D02*
X894Y763D01*
X563Y762D02*
X572Y762D01*
X603Y762D02*
X612Y762D01*
X707Y762D02*
X716Y762D01*
X747Y762D02*
X756Y762D01*
X851Y762D02*
X896Y762D01*
X563Y761D02*
X572Y761D01*
X603Y761D02*
X612Y761D01*
X707Y761D02*
X716Y761D01*
X747Y761D02*
X756Y761D01*
X852Y761D02*
X897Y761D01*
X563Y760D02*
X572Y760D01*
X603Y760D02*
X612Y760D01*
X707Y760D02*
X716Y760D01*
X747Y760D02*
X756Y760D01*
X852Y760D02*
X898Y760D01*
X563Y759D02*
X572Y759D01*
X603Y759D02*
X612Y759D01*
X707Y759D02*
X716Y759D01*
X747Y759D02*
X756Y759D01*
X852Y759D02*
X898Y759D01*
X563Y758D02*
X572Y758D01*
X603Y758D02*
X612Y758D01*
X707Y758D02*
X716Y758D01*
X747Y758D02*
X756Y758D01*
X853Y758D02*
X899Y758D01*
X563Y757D02*
X572Y757D01*
X603Y757D02*
X612Y757D01*
X707Y757D02*
X716Y757D01*
X747Y757D02*
X756Y757D01*
X854Y757D02*
X899Y757D01*
X563Y756D02*
X572Y756D01*
X603Y756D02*
X612Y756D01*
X707Y756D02*
X716Y756D01*
X747Y756D02*
X756Y756D01*
X855Y756D02*
X900Y756D01*
X563Y755D02*
X572Y755D01*
X603Y755D02*
X612Y755D01*
X707Y755D02*
X716Y755D01*
X747Y755D02*
X756Y755D01*
X857Y755D02*
X900Y755D01*
X563Y754D02*
X572Y754D01*
X603Y754D02*
X612Y754D01*
X707Y754D02*
X716Y754D01*
X747Y754D02*
X756Y754D01*
X861Y754D02*
X900Y754D01*
X563Y753D02*
X572Y753D01*
X603Y753D02*
X612Y753D01*
X707Y753D02*
X716Y753D01*
X747Y753D02*
X756Y753D01*
X891Y753D02*
X900Y753D01*
X563Y752D02*
X572Y752D01*
X603Y752D02*
X612Y752D01*
X707Y752D02*
X716Y752D01*
X747Y752D02*
X756Y752D01*
X891Y752D02*
X900Y752D01*
X563Y751D02*
X572Y751D01*
X603Y751D02*
X612Y751D01*
X654Y751D02*
X665Y751D01*
X707Y751D02*
X716Y751D01*
X747Y751D02*
X756Y751D01*
X798Y751D02*
X809Y751D01*
X891Y751D02*
X900Y751D01*
X563Y750D02*
X572Y750D01*
X603Y750D02*
X612Y750D01*
X652Y750D02*
X667Y750D01*
X707Y750D02*
X716Y750D01*
X747Y750D02*
X756Y750D01*
X796Y750D02*
X811Y750D01*
X891Y750D02*
X900Y750D01*
X563Y749D02*
X572Y749D01*
X603Y749D02*
X612Y749D01*
X651Y749D02*
X668Y749D01*
X707Y749D02*
X716Y749D01*
X747Y749D02*
X756Y749D01*
X795Y749D02*
X812Y749D01*
X891Y749D02*
X900Y749D01*
X563Y748D02*
X572Y748D01*
X603Y748D02*
X612Y748D01*
X650Y748D02*
X669Y748D01*
X707Y748D02*
X716Y748D01*
X747Y748D02*
X756Y748D01*
X794Y748D02*
X813Y748D01*
X891Y748D02*
X900Y748D01*
X563Y747D02*
X572Y747D01*
X603Y747D02*
X612Y747D01*
X650Y747D02*
X669Y747D01*
X707Y747D02*
X716Y747D01*
X747Y747D02*
X756Y747D01*
X794Y747D02*
X813Y747D01*
X891Y747D02*
X900Y747D01*
X563Y746D02*
X572Y746D01*
X603Y746D02*
X612Y746D01*
X650Y746D02*
X669Y746D01*
X707Y746D02*
X716Y746D01*
X747Y746D02*
X756Y746D01*
X794Y746D02*
X813Y746D01*
X891Y746D02*
X900Y746D01*
X563Y745D02*
X572Y745D01*
X603Y745D02*
X612Y745D01*
X650Y745D02*
X669Y745D01*
X707Y745D02*
X716Y745D01*
X747Y745D02*
X756Y745D01*
X794Y745D02*
X813Y745D01*
X891Y745D02*
X900Y745D01*
X563Y744D02*
X572Y744D01*
X603Y744D02*
X612Y744D01*
X650Y744D02*
X669Y744D01*
X707Y744D02*
X716Y744D01*
X747Y744D02*
X756Y744D01*
X794Y744D02*
X813Y744D01*
X891Y744D02*
X900Y744D01*
X563Y743D02*
X572Y743D01*
X603Y743D02*
X612Y743D01*
X650Y743D02*
X669Y743D01*
X707Y743D02*
X716Y743D01*
X747Y743D02*
X756Y743D01*
X794Y743D02*
X813Y743D01*
X891Y743D02*
X900Y743D01*
X563Y742D02*
X572Y742D01*
X603Y742D02*
X612Y742D01*
X650Y742D02*
X669Y742D01*
X707Y742D02*
X716Y742D01*
X747Y742D02*
X756Y742D01*
X794Y742D02*
X813Y742D01*
X891Y742D02*
X900Y742D01*
X563Y741D02*
X572Y741D01*
X603Y741D02*
X612Y741D01*
X650Y741D02*
X669Y741D01*
X707Y741D02*
X716Y741D01*
X747Y741D02*
X756Y741D01*
X794Y741D02*
X813Y741D01*
X891Y741D02*
X900Y741D01*
X563Y740D02*
X572Y740D01*
X603Y740D02*
X612Y740D01*
X650Y740D02*
X669Y740D01*
X707Y740D02*
X716Y740D01*
X747Y740D02*
X756Y740D01*
X794Y740D02*
X813Y740D01*
X891Y740D02*
X900Y740D01*
X563Y739D02*
X572Y739D01*
X603Y739D02*
X612Y739D01*
X650Y739D02*
X669Y739D01*
X707Y739D02*
X716Y739D01*
X747Y739D02*
X756Y739D01*
X794Y739D02*
X813Y739D01*
X891Y739D02*
X900Y739D01*
X563Y738D02*
X572Y738D01*
X603Y738D02*
X612Y738D01*
X650Y738D02*
X669Y738D01*
X707Y738D02*
X716Y738D01*
X747Y738D02*
X756Y738D01*
X794Y738D02*
X813Y738D01*
X891Y738D02*
X900Y738D01*
X563Y737D02*
X572Y737D01*
X603Y737D02*
X612Y737D01*
X650Y737D02*
X669Y737D01*
X707Y737D02*
X716Y737D01*
X747Y737D02*
X756Y737D01*
X794Y737D02*
X813Y737D01*
X891Y737D02*
X900Y737D01*
X563Y736D02*
X572Y736D01*
X603Y736D02*
X612Y736D01*
X650Y736D02*
X669Y736D01*
X707Y736D02*
X716Y736D01*
X747Y736D02*
X756Y736D01*
X794Y736D02*
X813Y736D01*
X891Y736D02*
X900Y736D01*
X563Y735D02*
X572Y735D01*
X603Y735D02*
X612Y735D01*
X651Y735D02*
X668Y735D01*
X707Y735D02*
X716Y735D01*
X747Y735D02*
X756Y735D01*
X795Y735D02*
X812Y735D01*
X891Y735D02*
X900Y735D01*
X563Y734D02*
X572Y734D01*
X603Y734D02*
X612Y734D01*
X652Y734D02*
X667Y734D01*
X707Y734D02*
X716Y734D01*
X747Y734D02*
X756Y734D01*
X796Y734D02*
X811Y734D01*
X891Y734D02*
X900Y734D01*
X563Y733D02*
X572Y733D01*
X603Y733D02*
X612Y733D01*
X653Y733D02*
X666Y733D01*
X707Y733D02*
X716Y733D01*
X747Y733D02*
X756Y733D01*
X797Y733D02*
X810Y733D01*
X891Y733D02*
X900Y733D01*
X563Y732D02*
X572Y732D01*
X603Y732D02*
X612Y732D01*
X707Y732D02*
X716Y732D01*
X747Y732D02*
X756Y732D01*
X891Y732D02*
X900Y732D01*
X563Y731D02*
X572Y731D01*
X603Y731D02*
X612Y731D01*
X707Y731D02*
X716Y731D01*
X747Y731D02*
X756Y731D01*
X891Y731D02*
X900Y731D01*
X563Y730D02*
X612Y730D01*
X707Y730D02*
X756Y730D01*
X856Y730D02*
X900Y730D01*
X563Y729D02*
X612Y729D01*
X707Y729D02*
X756Y729D01*
X853Y729D02*
X900Y729D01*
X563Y728D02*
X612Y728D01*
X707Y728D02*
X756Y728D01*
X852Y728D02*
X900Y728D01*
X564Y727D02*
X611Y727D01*
X708Y727D02*
X755Y727D01*
X852Y727D02*
X900Y727D01*
X564Y726D02*
X611Y726D01*
X708Y726D02*
X755Y726D01*
X851Y726D02*
X900Y726D01*
X565Y725D02*
X610Y725D01*
X709Y725D02*
X754Y725D01*
X851Y725D02*
X900Y725D01*
X565Y724D02*
X610Y724D01*
X709Y724D02*
X754Y724D01*
X851Y724D02*
X900Y724D01*
X566Y723D02*
X609Y723D01*
X710Y723D02*
X753Y723D01*
X852Y723D02*
X900Y723D01*
X567Y722D02*
X608Y722D01*
X711Y722D02*
X752Y722D01*
X852Y722D02*
X900Y722D01*
X569Y721D02*
X606Y721D01*
X713Y721D02*
X750Y721D01*
X853Y721D02*
X900Y721D01*
X573Y720D02*
X602Y720D01*
X717Y720D02*
X746Y720D01*
X856Y720D02*
X899Y720D01*
D02*
G04 End of Silk0*
M02*